<svg xmlns="http://www.w3.org/2000/svg" viewBox="0 0 100 125"><path style="text-indent:0;text-transform:none;block-progression:tb" d="M36.81 25.996c-3.543 0-7.084 1.41-9.78 4.218-5.393 5.617-5.387 14.63 0 20.25l22.22 23.22a1 1 0 0 0 1.468 0c7.416-7.725 14.834-15.465 22.25-23.188 5.392-5.617 5.392-14.634 0-20.25-5.393-5.617-14.2-5.617-19.594 0L50 33.746l-3.376-3.532c-2.697-2.808-6.268-4.218-9.813-4.218zm0 1.968c3.01 0 6.02 1.204 8.345 3.625L49.28 35.9a1 1 0 0 0 1.438 0l4.093-4.28c4.65-4.844 12.04-4.844 16.69 0 4.65 4.842 4.65 12.656 0 17.5-7.172 7.467-14.33 14.936-21.5 22.405L28.5 49.09c-4.647-4.85-4.65-12.658 0-17.5 2.324-2.422 5.303-3.626 8.31-3.626z" overflow="visible" color="#8cccb2" fill="#8fd1b7"/></svg>